<svg width="23" height="21" viewBox="0 0 23 21" fill="none" xmlns="http://www.w3.org/2000/svg">
<g clip-path="url(#clip0)">
<path d="M7.14412 10.8626C7.14335 11.0434 7.07181 11.2165 6.94516 11.3441C6.81851 11.4717 6.64706 11.5433 6.46834 11.5433H5.03194C4.86077 11.5319 4.7003 11.4551 4.58306 11.3284C4.46582 11.2017 4.40059 11.0346 4.40059 10.8611C4.40059 10.6875 4.46582 10.5205 4.58306 10.3938C4.7003 10.2671 4.86077 10.1903 5.03194 10.1789H6.46834C6.55719 10.1785 6.64524 10.1959 6.72741 10.2301C6.80957 10.2643 6.88422 10.3147 6.94705 10.3782C7.00988 10.4418 7.05964 10.5173 7.09347 10.6005C7.12729 10.6836 7.14451 10.7727 7.14412 10.8626ZM6.46834 13.0913H5.03194C4.85348 13.0913 4.68234 13.163 4.55615 13.2907C4.42997 13.4184 4.35908 13.5915 4.35908 13.7721C4.35908 13.9526 4.42997 14.1258 4.55615 14.2535C4.68234 14.3811 4.85348 14.4528 5.03194 14.4528H6.46834C6.64679 14.4528 6.81793 14.3811 6.94412 14.2535C7.0703 14.1258 7.1412 13.9526 7.1412 13.7721C7.1412 13.5915 7.0703 13.4184 6.94412 13.2907C6.81793 13.163 6.64679 13.0913 6.46834 13.0913ZM6.46834 16.0008H5.03194C4.85348 16.0008 4.68234 16.0726 4.55615 16.2002C4.42997 16.3279 4.35908 16.5011 4.35908 16.6816C4.35908 16.8621 4.42997 17.0353 4.55615 17.163C4.68234 17.2906 4.85348 17.3624 5.03194 17.3624H6.46834C6.64679 17.3624 6.81793 17.2906 6.94412 17.163C7.0703 17.0353 7.1412 16.8621 7.1412 16.6816C7.1412 16.5011 7.0703 16.3279 6.94412 16.2002C6.81793 16.0726 6.64679 16.0008 6.46834 16.0008ZM12.2198 10.1818H10.7834C10.6911 10.1757 10.5986 10.1887 10.5115 10.2202C10.4244 10.2517 10.3446 10.301 10.2771 10.3649C10.2096 10.4289 10.1558 10.5062 10.119 10.592C10.0822 10.6779 10.0632 10.7705 10.0632 10.8641C10.0632 10.9576 10.0822 11.0502 10.119 11.1361C10.1558 11.2219 10.2096 11.2992 10.2771 11.3632C10.3446 11.4271 10.4244 11.4764 10.5115 11.5079C10.5986 11.5394 10.6911 11.5524 10.7834 11.5463H12.2198C12.391 11.5349 12.5514 11.458 12.6687 11.3313C12.7859 11.2047 12.8511 11.0376 12.8511 10.8641C12.8511 10.6905 12.7859 10.5234 12.6687 10.3968C12.5514 10.2701 12.391 10.1932 12.2198 10.1818ZM12.2198 13.0913H10.7834C10.6049 13.0913 10.4338 13.163 10.3076 13.2907C10.1814 13.4184 10.1105 13.5915 10.1105 13.7721C10.1105 13.9526 10.1814 14.1258 10.3076 14.2535C10.4338 14.3811 10.6049 14.4528 10.7834 14.4528H12.2198C12.3983 14.4528 12.5694 14.3811 12.6956 14.2535C12.8218 14.1258 12.8927 13.9526 12.8927 13.7721C12.8927 13.5915 12.8218 13.4184 12.6956 13.2907C12.5694 13.163 12.3983 13.0913 12.2198 13.0913ZM12.2198 16.0008H10.7834C10.6049 16.0008 10.4338 16.0726 10.3076 16.2002C10.1814 16.3279 10.1105 16.5011 10.1105 16.6816C10.1105 16.8621 10.1814 17.0353 10.3076 17.163C10.4338 17.2906 10.6049 17.3624 10.7834 17.3624H12.2198C12.3983 17.3624 12.5694 17.2906 12.6956 17.163C12.8218 17.0353 12.8927 16.8621 12.8927 16.6816C12.8927 16.5011 12.8218 16.3279 12.6956 16.2002C12.5694 16.0726 12.3983 16.0008 12.2198 16.0008ZM17.9713 10.1818H16.5319C16.3608 10.1932 16.2003 10.2701 16.0831 10.3968C15.9658 10.5234 15.9006 10.6905 15.9006 10.8641C15.9006 11.0376 15.9658 11.2047 16.0831 11.3313C16.2003 11.458 16.3608 11.5349 16.5319 11.5463H17.9713C18.1424 11.5349 18.3029 11.458 18.4201 11.3313C18.5374 11.2047 18.6026 11.0376 18.6026 10.8641C18.6026 10.6905 18.5374 10.5234 18.4201 10.3968C18.3029 10.2701 18.1424 10.1932 17.9713 10.1818ZM17.9713 13.0913H16.5319C16.3535 13.0913 16.1823 13.163 16.0562 13.2907C15.93 13.4184 15.8591 13.5915 15.8591 13.7721C15.8591 13.9526 15.93 14.1258 16.0562 14.2535C16.1823 14.3811 16.3535 14.4528 16.5319 14.4528H17.9713C18.1497 14.4528 18.3209 14.3811 18.447 14.2535C18.5732 14.1258 18.6441 13.9526 18.6441 13.7721C18.6441 13.5915 18.5732 13.4184 18.447 13.2907C18.3209 13.163 18.1497 13.0913 17.9713 13.0913ZM17.9713 16.0008H16.5319C16.3535 16.0008 16.1823 16.0726 16.0562 16.2002C15.93 16.3279 15.8591 16.5011 15.8591 16.6816C15.8591 16.8621 15.93 17.0353 16.0562 17.163C16.1823 17.2906 16.3535 17.3624 16.5319 17.3624H17.9713C18.1497 17.3624 18.3209 17.2906 18.447 17.163C18.5732 17.0353 18.6441 16.8621 18.6441 16.6816C18.6441 16.5011 18.5732 16.3279 18.447 16.2002C18.3209 16.0726 18.1497 16.0008 17.9713 16.0008ZM23.0001 3.86553V18.9429C23.0036 19.2137 22.9539 19.4825 22.8539 19.7338C22.7539 19.985 22.6055 20.2136 22.4174 20.4064C22.2294 20.5991 22.0054 20.7522 21.7584 20.8566C21.5114 20.961 21.2463 21.0148 20.9786 21.0148H2.02163C1.75405 21.0144 1.48919 20.9604 1.24238 20.8558C0.995562 20.7512 0.771691 20.5982 0.583708 20.4055C0.395724 20.2128 0.247359 19.9844 0.147191 19.7333C0.0470237 19.4823 -0.00295841 19.2136 0.000135319 18.9429V3.84777C0.00475944 3.30815 0.219685 2.79218 0.598206 2.41198C0.976727 2.03178 1.48826 1.81809 2.02163 1.81733H3.63941V0.680752C3.65069 0.507577 3.72664 0.345222 3.85186 0.226606C3.97708 0.107991 4.1422 0.0419922 4.31373 0.0419922C4.48527 0.0419922 4.65039 0.107991 4.77561 0.226606C4.90082 0.345222 4.97677 0.507577 4.98805 0.680752V1.81733H10.8244V0.680752C10.8356 0.507577 10.9116 0.345222 11.0368 0.226606C11.162 0.107991 11.3271 0.0419922 11.4987 0.0419922C11.6702 0.0419922 11.8353 0.107991 11.9605 0.226606C12.0858 0.345222 12.1617 0.507577 12.173 0.680752V1.81733H18.0239V0.680752C18.0352 0.507577 18.1112 0.345222 18.2364 0.226606C18.3616 0.107991 18.5267 0.0419922 18.6982 0.0419922C18.8698 0.0419922 19.0349 0.107991 19.1601 0.226606C19.2853 0.345222 19.3613 0.507577 19.3726 0.680752V1.81733H20.9874C21.522 1.81968 22.034 2.03619 22.4112 2.4195C22.7884 2.8028 23.0001 3.32167 23.0001 3.86257V3.86553ZM1.3517 6.54714H21.6486V3.86257C21.6486 3.77292 21.6311 3.68416 21.5971 3.60137C21.5631 3.51858 21.5133 3.4434 21.4505 3.38015C21.3877 3.3169 21.3132 3.26681 21.2312 3.23278C21.1492 3.19874 21.0614 3.18142 20.9728 3.18181H19.3638V4.31838C19.3525 4.49156 19.2766 4.65391 19.1513 4.77253C19.0261 4.89115 18.861 4.95714 18.6895 4.95714C18.5179 4.95714 18.3528 4.89115 18.2276 4.77253C18.1024 4.65391 18.0264 4.49156 18.0151 4.31838V3.18181H12.1642V4.31838C12.1529 4.49156 12.077 4.65391 11.9518 4.77253C11.8266 4.89115 11.6614 4.95714 11.4899 4.95714C11.3184 4.95714 11.1532 4.89115 11.028 4.77253C10.9028 4.65391 10.8269 4.49156 10.8156 4.31838V3.18181H4.96465V4.31838C4.95337 4.49156 4.87742 4.65391 4.7522 4.77253C4.62698 4.89115 4.46187 4.95714 4.29033 4.95714C4.11879 4.95714 3.95368 4.89115 3.82846 4.77253C3.70324 4.65391 3.62729 4.49156 3.61601 4.31838V3.18181H2.02163C1.84318 3.18181 1.67203 3.25353 1.54585 3.3812C1.41966 3.50887 1.34877 3.68202 1.34877 3.86257L1.3517 6.54714ZM21.6486 18.9429V7.90866H1.34877V18.9429C1.34877 19.1235 1.41966 19.2966 1.54585 19.4243C1.67203 19.5519 1.84318 19.6237 2.02163 19.6237H20.9786C21.1566 19.6229 21.327 19.5508 21.4525 19.4232C21.5781 19.2957 21.6486 19.1229 21.6486 18.9429Z" fill="#FA913C"/>
</g>
<defs>
<clipPath id="clip0">
<rect width="23" height="21" fill="white"/>
</clipPath>
</defs>
</svg>
