<svg width="23" height="23" viewBox="0 0 23 23" fill="none" xmlns="http://www.w3.org/2000/svg">
<g clip-path="url(#clip0)">
<path d="M11.5 23C9.22552 23 7.00211 22.3255 5.11095 21.0619C3.21978 19.7983 1.7458 18.0022 0.875391 15.9009C0.00498277 13.7995 -0.222756 11.4872 0.220974 9.25645C0.664705 7.02567 1.75997 4.97657 3.36828 3.36826C4.97658 1.75996 7.02569 0.664689 9.25647 0.220959C11.4872 -0.222771 13.7995 0.00496751 15.9009 0.875375C18.0022 1.74578 19.7983 3.21977 21.0619 5.11093C22.3255 7.0021 23 9.22551 23 11.5C23 14.55 21.7884 17.475 19.6317 19.6317C17.4751 21.7884 14.55 23 11.5 23ZM11.5 1.14999C9.45297 1.14999 7.4519 1.75701 5.74985 2.89428C4.0478 4.03155 2.72122 5.648 1.93785 7.53922C1.15449 9.43043 0.949521 11.5115 1.34888 13.5192C1.74823 15.5269 2.73398 17.3711 4.18145 18.8185C5.62892 20.266 7.47312 21.2518 9.48082 21.6511C11.4885 22.0505 13.5696 21.8455 15.4608 21.0621C17.352 20.2788 18.9684 18.9522 20.1057 17.2501C21.243 15.5481 21.85 13.547 21.85 11.5C21.85 8.755 20.7596 6.12244 18.8186 4.18144C16.8776 2.24043 14.245 1.14999 11.5 1.14999ZM12.075 11.5V4.88749C12.075 4.73499 12.0144 4.58874 11.9066 4.4809C11.7988 4.37307 11.6525 4.31249 11.5 4.31249C11.3475 4.31249 11.2013 4.37307 11.0934 4.4809C10.9856 4.58874 10.925 4.73499 10.925 4.88749V11.5C10.925 11.6525 10.9856 11.7987 11.0934 11.9066C11.2013 12.0144 11.3475 12.075 11.5 12.075C11.6525 12.075 11.7988 12.0144 11.9066 11.9066C12.0144 11.7987 12.075 11.6525 12.075 11.5ZM18.6875 11.5C18.6875 11.3475 18.6269 11.2012 18.5191 11.0934C18.4113 10.9856 18.265 10.925 18.1125 10.925H11.5C11.3475 10.925 11.2013 10.9856 11.0934 11.0934C10.9856 11.2012 10.925 11.3475 10.925 11.5C10.925 11.6525 10.9856 11.7987 11.0934 11.9066C11.2013 12.0144 11.3475 12.075 11.5 12.075H18.1125C18.265 12.075 18.4113 12.0144 18.5191 11.9066C18.6269 11.7987 18.6875 11.6525 18.6875 11.5Z" fill="#27AE60"/>
</g>
<defs>
<clipPath id="clip0">
<rect width="23" height="23" fill="white"/>
</clipPath>
</defs>
</svg>
