<svg width="26" height="17" viewBox="0 0 26 17" fill="none" xmlns="http://www.w3.org/2000/svg">
<path fill-rule="evenodd" clip-rule="evenodd" d="M19.375 16.0007C21.4739 16.0042 23.3395 14.6639 24.006 12.6735C24.6724 10.6832 23.9901 8.48966 22.3121 7.2286C20.6342 5.96753 18.3375 5.92203 16.611 7.11565C15.8791 3.22059 12.243 0.567262 8.31036 1.05849C4.37769 1.54973 1.50602 5.01594 1.75475 8.97136C2.00348 12.9268 5.28675 16.0059 9.24997 16.0007H19.375Z" stroke="#3A4859" stroke-width="1.5" stroke-linecap="round" stroke-linejoin="round"/>
<path fill-rule="evenodd" clip-rule="evenodd" d="M10.6727 11H8.49495L8 7.5C8 6.7 8.69293 6 9.48485 6C10.2768 6 10.9697 6.7 10.9697 7.5L10.6727 11Z" stroke="#3A4859" stroke-width="1.8" stroke-linecap="round" stroke-linejoin="round"/>
</svg>
