<svg width="24" height="24" viewBox="0 0 24 24" fill="none" xmlns="http://www.w3.org/2000/svg">
<path d="M0.75 23.25H23.25" stroke="#4A90E2" stroke-width="1.5" stroke-linecap="round" stroke-linejoin="round"/>
<path fill-rule="evenodd" clip-rule="evenodd" d="M6 17.25H3C2.58579 17.25 2.25 17.5858 2.25 18V23.25H6.75V18C6.75 17.5858 6.41421 17.25 6 17.25Z" stroke="#4A90E2" stroke-width="1.5" stroke-linecap="round" stroke-linejoin="round"/>
<path fill-rule="evenodd" clip-rule="evenodd" d="M13.5 9.75H10.5C10.0858 9.75 9.75 10.0858 9.75 10.5V23.25H14.25V10.5C14.25 10.0858 13.9142 9.75 13.5 9.75Z" stroke="#4A90E2" stroke-width="1.5" stroke-linecap="round" stroke-linejoin="round"/>
<path fill-rule="evenodd" clip-rule="evenodd" d="M21 12.75H18C17.5858 12.75 17.25 13.0858 17.25 13.5V23.25H21.75V13.5C21.75 13.0858 21.4142 12.75 21 12.75Z" stroke="#4A90E2" stroke-width="1.5" stroke-linecap="round" stroke-linejoin="round"/>
<path d="M23.25 5.25V0.75H18.75" stroke="#4A90E2" stroke-width="1.5" stroke-linecap="round" stroke-linejoin="round"/>
<path d="M23.25 0.75L18.2 5.8C17.6149 6.38526 16.7556 6.6019 15.963 6.364L10.254 4.838C9.47784 4.63084 8.6501 4.85302 8.082 5.421L2.25 11.253" stroke="#4A90E2" stroke-width="1.5" stroke-linecap="round" stroke-linejoin="round"/>
</svg>
