<svg width="25" height="20" viewBox="0 0 25 20" fill="none" xmlns="http://www.w3.org/2000/svg">
<path fill-rule="evenodd" clip-rule="evenodd" d="M16.2502 12.25C19.0116 12.25 21.2502 10.0114 21.2502 7.25V2.5C21.2502 1.67157 20.5786 1 19.7502 1H4.75018C3.92176 1 3.25018 1.67157 3.25018 2.5V7.25C3.25018 10.0114 5.48876 12.25 8.25018 12.25H16.2502Z" stroke="#3A4859" stroke-width="1.5" stroke-linecap="round" stroke-linejoin="round"/>
<path fill-rule="evenodd" clip-rule="evenodd" d="M23.3712 16.891C23.5773 17.355 23.5348 17.8918 23.258 18.3175C22.9813 18.7433 22.5079 19.0001 22.0002 19H2.50019C1.99244 19.0001 1.51912 18.7433 1.24238 18.3175C0.965638 17.8918 0.923046 17.355 1.12919 16.891L1.91494 15.1717C2.7284 13.3917 4.50552 12.25 6.46254 12.25H18.0379C19.9949 12.25 21.772 13.3917 22.5854 15.1717L23.3712 16.891Z" stroke="#3A4859" stroke-width="1.5" stroke-linecap="round" stroke-linejoin="round"/>
<path d="M10.7502 16H13.7502" stroke="#3A4859" stroke-width="1.5" stroke-linecap="round" stroke-linejoin="round"/>
</svg>
