<svg width="20" height="26" viewBox="0 0 20 26" fill="none" xmlns="http://www.w3.org/2000/svg">
<path fill-rule="evenodd" clip-rule="evenodd" d="M3.57366 10.5C2.38578 10.5 1.49487 11.4 1.49487 12.6L2.38578 22.4C2.38578 23.6 3.37568 24.5 4.46457 24.5H15.2545C16.4423 24.5 17.3333 23.6 17.3333 22.4L18.2242 12.6C18.2242 11.4 17.2343 10.5 16.1454 10.5L3.57366 10.5Z" stroke="#3A4859" stroke-width="1.8" stroke-linecap="round" stroke-linejoin="round"/>
<path fill-rule="evenodd" clip-rule="evenodd" d="M10.9979 20.5H8.82014L8.3252 17C8.3252 16.2 9.01812 15.5 9.81004 15.5C10.602 15.5 11.2949 16.2 11.2949 17L10.9979 20.5Z" stroke="#3A4859" stroke-width="1.8" stroke-linecap="round" stroke-linejoin="round"/>
<path d="M5.45447 10.5V6.00005C5.45447 3.70005 7.53326 1.80005 9.90901 1.80005C12.2848 1.80005 14.3636 3.70005 14.3636 6.00005V10.5" stroke="#3A4859" stroke-width="1.8" stroke-linecap="round" stroke-linejoin="round"/>
</svg>
