<svg width="73" height="27" viewBox="0 0 73 27" fill="none" xmlns="http://www.w3.org/2000/svg">
<path fill-rule="evenodd" clip-rule="evenodd" d="M1.26443 13.8024L0 22.2917L16.9481 0.416687L1.26443 13.8024Z" fill="#EE0586"/>
<path fill-rule="evenodd" clip-rule="evenodd" d="M0 23.3333L22.5974 23.2365L18.1158 1.45834L0 23.3333Z" fill="#F33D2E"/>
<path fill-rule="evenodd" clip-rule="evenodd" d="M3.84682 26.4583L22.5974 25.2814L0 23.3333L3.84682 26.4583Z" fill="#FA913C"/>
<path d="M43.18 11.9993H38.68C38.284 11.9993 38.008 12.0773 37.852 12.2333C37.696 12.3893 37.618 12.6593 37.618 13.0433V15.4373H42.514V17.1833H37.618V22.5833H35.35V12.5753C35.35 11.8073 35.59 11.2073 36.07 10.7753C36.55 10.3433 37.198 10.1273 38.014 10.1273C40.486 10.1273 42.25 10.1813 43.306 10.2893L43.18 11.9993ZM55.3102 10.1633V21.7553C55.3102 22.3073 55.0342 22.5833 54.4822 22.5833H52.7002C52.2682 22.5833 51.9562 22.3553 51.7642 21.8993L48.2722 14.2853C47.8522 13.3853 47.6062 12.7673 47.5342 12.4313H47.3182C47.3902 12.9353 47.4262 13.5593 47.4262 14.3033V22.5833H45.2122V10.9913C45.2122 10.4393 45.4942 10.1633 46.0582 10.1633H47.8042C48.0442 10.1633 48.2302 10.2173 48.3622 10.3253C48.5062 10.4333 48.6322 10.6073 48.7402 10.8473L52.1242 18.2453C52.1602 18.3293 52.2862 18.6113 52.5022 19.0913C52.7182 19.5713 52.8802 19.9433 52.9882 20.2073H53.2042C53.1442 19.4513 53.1142 18.7793 53.1142 18.1913V10.1633H55.3102ZM64.7214 19.0733H60.1134L59.0874 22.5833H56.7834L60.5094 10.7573C60.6174 10.3613 60.8874 10.1633 61.3194 10.1633H63.5154C63.9474 10.1633 64.2174 10.3613 64.3254 10.7573L68.0514 22.5833H65.7474L64.7214 19.0733ZM64.1814 17.2193L62.9394 12.9353C62.7714 12.2873 62.6814 11.9333 62.6694 11.8733H62.1834L61.8954 12.9353L60.6534 17.2193H64.1814Z" fill="#EDF1F9"/>
</svg>
