<svg width="24" height="25" viewBox="0 0 24 25" fill="none" xmlns="http://www.w3.org/2000/svg">
<path fill-rule="evenodd" clip-rule="evenodd" d="M13.5 15.248C15.5711 15.248 17.25 13.5691 17.25 11.498C17.25 9.42693 15.5711 7.748 13.5 7.748C11.4289 7.748 9.75 9.42693 9.75 11.498C9.75 13.5691 11.4289 15.248 13.5 15.248Z" stroke="#3A4859" stroke-width="1.5" stroke-linecap="round" stroke-linejoin="round"/>
<path fill-rule="evenodd" clip-rule="evenodd" d="M21 6.248C22.2426 6.248 23.25 5.24064 23.25 3.998C23.25 2.75536 22.2426 1.748 21 1.748C19.7574 1.748 18.75 2.75536 18.75 3.998C18.75 5.24064 19.7574 6.248 21 6.248Z" stroke="#3A4859" stroke-width="1.5" stroke-linecap="round" stroke-linejoin="round"/>
<path fill-rule="evenodd" clip-rule="evenodd" d="M21 18.998C22.2426 18.998 23.25 17.9906 23.25 16.748C23.25 15.5054 22.2426 14.498 21 14.498C19.7574 14.498 18.75 15.5054 18.75 16.748C18.75 17.9906 19.7574 18.998 21 18.998Z" stroke="#3A4859" stroke-width="1.5" stroke-linecap="round" stroke-linejoin="round"/>
<path fill-rule="evenodd" clip-rule="evenodd" d="M13.5 24.248C14.7426 24.248 15.75 23.2406 15.75 21.998C15.75 20.7554 14.7426 19.748 13.5 19.748C12.2574 19.748 11.25 20.7554 11.25 21.998C11.25 23.2406 12.2574 24.248 13.5 24.248Z" stroke="#3A4859" stroke-width="1.5" stroke-linecap="round" stroke-linejoin="round"/>
<path fill-rule="evenodd" clip-rule="evenodd" d="M3 24.248C4.24264 24.248 5.25 23.2406 5.25 21.998C5.25 20.7554 4.24264 19.748 3 19.748C1.75736 19.748 0.75 20.7554 0.75 21.998C0.75 23.2406 1.75736 24.248 3 24.248Z" stroke="#3A4859" stroke-width="1.5" stroke-linecap="round" stroke-linejoin="round"/>
<path fill-rule="evenodd" clip-rule="evenodd" d="M3.75 8.498C4.99264 8.498 6 7.49064 6 6.248C6 5.00536 4.99264 3.998 3.75 3.998C2.50736 3.998 1.5 5.00536 1.5 6.248C1.5 7.49064 2.50736 8.498 3.75 8.498Z" stroke="#3A4859" stroke-width="1.5" stroke-linecap="round" stroke-linejoin="round"/>
<path d="M16.151 8.848L19.411 5.588" stroke="#3A4859" stroke-width="1.5" stroke-linecap="round" stroke-linejoin="round"/>
<path d="M16.7939 13.292L19.0789 15.577" stroke="#3A4859" stroke-width="1.5" stroke-linecap="round" stroke-linejoin="round"/>
<path d="M13.5 15.248V19.748" stroke="#3A4859" stroke-width="1.5" stroke-linecap="round" stroke-linejoin="round"/>
<path d="M10.851 14.147L4.58997 20.408" stroke="#3A4859" stroke-width="1.5" stroke-linecap="round" stroke-linejoin="round"/>
<path d="M10.001 10.149L5.60999 7.514" stroke="#3A4859" stroke-width="1.5" stroke-linecap="round" stroke-linejoin="round"/>
</svg>
