<svg width="25" height="25" viewBox="0 0 25 25" fill="none" xmlns="http://www.w3.org/2000/svg">
<path fill-rule="evenodd" clip-rule="evenodd" d="M16 21.25C18.8995 21.25 21.25 18.8995 21.25 16C21.25 13.1005 18.8995 10.75 16 10.75C13.1005 10.75 10.75 13.1005 10.75 16C10.75 18.8995 13.1005 21.25 16 21.25Z" stroke="#3A4859" stroke-width="1.5" stroke-linecap="round" stroke-linejoin="round"/>
<path d="M23.5 23.5L19.712 19.712" stroke="#3A4859" stroke-width="1.5" stroke-linecap="round" stroke-linejoin="round"/>
<path d="M12.25 23.5C6.0368 23.5 1 18.4632 1 12.25C1 6.0368 6.0368 1 12.25 1C18.4632 1 23.5 6.0368 23.5 12.25" stroke="#3A4859" stroke-width="1.5" stroke-linecap="round" stroke-linejoin="round"/>
<path d="M9.539 23.171C8.018 20.939 7 16.883 7 12.25C7 7.617 8.018 3.562 9.539 1.329" stroke="#3A4859" stroke-width="1.5" stroke-linecap="round" stroke-linejoin="round"/>
<path d="M1.02502 11.5H9.25002" stroke="#3A4859" stroke-width="1.5" stroke-linecap="round" stroke-linejoin="round"/>
<path d="M3.24902 5.5H21.25" stroke="#3A4859" stroke-width="1.5" stroke-linecap="round" stroke-linejoin="round"/>
<path d="M2.29797 17.5H7.46397" stroke="#3A4859" stroke-width="1.5" stroke-linecap="round" stroke-linejoin="round"/>
<path d="M14.9611 1.329C16.1393 3.28827 16.8891 5.47495 17.1611 7.745" stroke="#3A4859" stroke-width="1.5" stroke-linecap="round" stroke-linejoin="round"/>
</svg>
