<svg width="22" height="25" viewBox="0 0 22 25" fill="none" xmlns="http://www.w3.org/2000/svg">
<path fill-rule="evenodd" clip-rule="evenodd" d="M10.75 11.5C13.6495 11.5 16 9.14949 16 6.25C16 3.35051 13.6495 1 10.75 1C7.85051 1 5.5 3.35051 5.5 6.25C5.5 9.14949 7.85051 11.5 10.75 11.5Z" stroke="#3A4859" stroke-width="1.5" stroke-linecap="round" stroke-linejoin="round"/>
<path d="M1 23.5C1 18.1152 5.36522 13.75 10.75 13.75C16.1348 13.75 20.5 18.1152 20.5 23.5" stroke="#3A4859" stroke-width="1.5" stroke-linecap="round" stroke-linejoin="round"/>
<path fill-rule="evenodd" clip-rule="evenodd" d="M10.75 5.5H5.54998C5.51508 5.74845 5.49837 5.99912 5.49998 6.25C5.49903 7.0951 5.70284 7.92786 6.09398 8.677C7.70298 9.194 10.25 9.032 10.75 5.5Z" stroke="#3A4859" stroke-width="1.5" stroke-linecap="round" stroke-linejoin="round"/>
<path fill-rule="evenodd" clip-rule="evenodd" d="M15.95 5.5H10.75C11.255 9.032 13.797 9.194 15.406 8.677C15.7971 7.92786 16.001 7.0951 16 6.25C16.0016 5.99912 15.9849 5.74845 15.95 5.5V5.5Z" stroke="#3A4859" stroke-width="1.5" stroke-linecap="round" stroke-linejoin="round"/>
<path d="M4.75 5.5H16.75" stroke="#3A4859" stroke-width="1.5" stroke-linecap="round" stroke-linejoin="round"/>
<path d="M3.06897 17.5H18.432" stroke="#3A4859" stroke-width="1.5" stroke-linecap="round" stroke-linejoin="round"/>
<path d="M1.47205 20.5H20.029" stroke="#3A4859" stroke-width="1.5" stroke-linecap="round" stroke-linejoin="round"/>
</svg>
