<svg width="23" height="21" viewBox="0 0 23 21" fill="none" xmlns="http://www.w3.org/2000/svg">
<g clip-path="url(#clip0)">
<path d="M23.0001 3.86553V18.9429C23.0036 19.2137 22.9539 19.4825 22.8539 19.7338C22.7539 19.985 22.6055 20.2136 22.4174 20.4064C22.2294 20.5991 22.0054 20.7522 21.7584 20.8566C21.5114 20.961 21.2463 21.0148 20.9786 21.0148H2.02163C1.75405 21.0144 1.48919 20.9604 1.24238 20.8558C0.995562 20.7512 0.771691 20.5982 0.583708 20.4055C0.395724 20.2128 0.247359 19.9844 0.147191 19.7333C0.0470237 19.4823 -0.00295841 19.2136 0.000135319 18.9429V3.84777C0.00475944 3.30815 0.219685 2.79218 0.598206 2.41198C0.976727 2.03178 1.48826 1.81809 2.02163 1.81733H3.63941V0.680752C3.65069 0.507577 3.72664 0.345222 3.85186 0.226606C3.97708 0.107991 4.1422 0.0419922 4.31373 0.0419922C4.48527 0.0419922 4.65039 0.107991 4.77561 0.226606C4.90082 0.345222 4.97677 0.507577 4.98805 0.680752V1.81733H10.8244V0.680752C10.8356 0.507577 10.9116 0.345222 11.0368 0.226606C11.162 0.107991 11.3271 0.0419922 11.4987 0.0419922C11.6702 0.0419922 11.8353 0.107991 11.9605 0.226606C12.0858 0.345222 12.1617 0.507577 12.173 0.680752V1.81733H18.0239V0.680752C18.0352 0.507577 18.1112 0.345222 18.2364 0.226606C18.3616 0.107991 18.5267 0.0419922 18.6982 0.0419922C18.8698 0.0419922 19.0349 0.107991 19.1601 0.226606C19.2853 0.345222 19.3613 0.507577 19.3726 0.680752V1.81733H20.9874C21.522 1.81968 22.034 2.03619 22.4112 2.4195C22.7884 2.8028 23.0001 3.32167 23.0001 3.86257V3.86553ZM1.3517 6.54714H21.6486V3.86257C21.6486 3.77292 21.6311 3.68416 21.5971 3.60137C21.5631 3.51858 21.5133 3.4434 21.4505 3.38015C21.3877 3.3169 21.3132 3.26681 21.2312 3.23278C21.1492 3.19874 21.0614 3.18142 20.9728 3.18181H19.3638V4.31838C19.3525 4.49156 19.2766 4.65391 19.1513 4.77253C19.0261 4.89115 18.861 4.95714 18.6895 4.95714C18.5179 4.95714 18.3528 4.89115 18.2276 4.77253C18.1024 4.65391 18.0264 4.49156 18.0151 4.31838V3.18181H12.1642V4.31838C12.1529 4.49156 12.077 4.65391 11.9518 4.77253C11.8266 4.89115 11.6614 4.95714 11.4899 4.95714C11.3184 4.95714 11.1532 4.89115 11.028 4.77253C10.9028 4.65391 10.8269 4.49156 10.8156 4.31838V3.18181H4.96465V4.31838C4.95337 4.49156 4.87742 4.65391 4.7522 4.77253C4.62698 4.89115 4.46187 4.95714 4.29033 4.95714C4.11879 4.95714 3.95368 4.89115 3.82846 4.77253C3.70324 4.65391 3.62729 4.49156 3.61601 4.31838V3.18181H2.02163C1.84318 3.18181 1.67203 3.25353 1.54585 3.3812C1.41966 3.50887 1.34877 3.68202 1.34877 3.86257L1.3517 6.54714ZM21.6486 18.9429V7.90866H1.34877V18.9429C1.34877 19.1235 1.41966 19.2966 1.54585 19.4243C1.67203 19.5519 1.84318 19.6237 2.02163 19.6237H20.9786C21.1566 19.6229 21.327 19.5508 21.4525 19.4232C21.5781 19.2957 21.6486 19.1229 21.6486 18.9429Z" fill="#F9DA62"/>
<path d="M4.3 10.88H6.89C7.75 10.88 8.1 11.19 8.1 11.86C8.1 13.02 5.31 15.14 4.37 15.77V17H9.5V15.71H6.74C7.41 15.19 9.5 13.49 9.5 11.85C9.5 10.62 8.85 9.58 7.34 9.58C6.04 9.58 5.21 9.68 4.3 9.84V10.88ZM10.2189 9.68L12.5089 17H14.1289L14.9989 14.01L15.9789 17H17.5989L19.6189 9.68H18.1289L16.7889 15.14L15.6289 11.57L16.1389 9.68H14.6389L13.3289 15.12L11.6989 9.68H10.2189Z" fill="#F9DA62"/>
</g>
<defs>
<clipPath id="clip0">
<rect width="23" height="21" fill="white"/>
</clipPath>
</defs>
</svg>
